<svg width="16" height="11" viewBox="0 0 16 11" fill="none" xmlns="http://www.w3.org/2000/svg">
<path d="M3.76806 10.168C2.94673 10.168 2.23273 10.0093 1.62606 9.692C1.0194 9.36533 0.515396 8.94067 0.114063 8.418L0.912063 7.704C1.29473 8.17067 1.71473 8.53 2.17206 8.782C2.63873 9.034 3.1754 9.16 3.78206 9.16C4.08073 9.16 4.36073 9.118 4.62206 9.034C4.8834 8.94067 5.1074 8.81 5.29406 8.642C5.49006 8.474 5.64406 8.27333 5.75606 8.04C5.86806 7.80667 5.92406 7.54533 5.92406 7.256V7.228C5.92406 6.92 5.85406 6.64933 5.71406 6.416C5.5834 6.18267 5.39673 5.98667 5.15406 5.828C4.9114 5.66933 4.62206 5.548 4.28606 5.464C3.95006 5.38 3.5814 5.338 3.18006 5.338H2.55006L2.32606 4.68L5.42006 1.194H0.632062V0.2H6.89006V1.012L3.81006 4.428C4.2394 4.46533 4.6454 4.54467 5.02806 4.666C5.42006 4.78733 5.7654 4.96 6.06406 5.184C6.36273 5.408 6.60073 5.688 6.77806 6.024C6.9554 6.35067 7.04406 6.738 7.04406 7.186V7.214C7.04406 7.65267 6.9554 8.054 6.77806 8.418C6.61006 8.782 6.37673 9.09467 6.07806 9.356C5.78873 9.608 5.4434 9.80867 5.04206 9.958C4.65006 10.098 4.2254 10.168 3.76806 10.168ZM12.354 10.168C11.5327 10.168 10.8187 10.0093 10.212 9.692C9.60533 9.36533 9.10133 8.94067 8.7 8.418L9.498 7.704C9.88067 8.17067 10.3007 8.53 10.758 8.782C11.2247 9.034 11.7613 9.16 12.368 9.16C12.6667 9.16 12.9467 9.118 13.208 9.034C13.4693 8.94067 13.6933 8.81 13.88 8.642C14.076 8.474 14.23 8.27333 14.342 8.04C14.454 7.80667 14.51 7.54533 14.51 7.256V7.228C14.51 6.92 14.44 6.64933 14.3 6.416C14.1693 6.18267 13.9827 5.98667 13.74 5.828C13.4973 5.66933 13.208 5.548 12.872 5.464C12.536 5.38 12.1673 5.338 11.766 5.338H11.136L10.912 4.68L14.006 1.194H9.218V0.2H15.476V1.012L12.396 4.428C12.8253 4.46533 13.2313 4.54467 13.614 4.666C14.006 4.78733 14.3513 4.96 14.65 5.184C14.9487 5.408 15.1867 5.688 15.364 6.024C15.5413 6.35067 15.63 6.738 15.63 7.186V7.214C15.63 7.65267 15.5413 8.054 15.364 8.418C15.196 8.782 14.9627 9.09467 14.664 9.356C14.3747 9.608 14.0293 9.80867 13.628 9.958C13.236 10.098 12.8113 10.168 12.354 10.168Z" fill="#2A5A75"/>
</svg>
