<svg width="18" height="11" viewBox="0 0 18 11" fill="none" xmlns="http://www.w3.org/2000/svg">
<path d="M4.36474 10.168C3.54341 10.168 2.82941 10.0093 2.22274 9.692C1.61608 9.36533 1.11208 8.94067 0.710742 8.418L1.50874 7.704C1.89141 8.17067 2.31141 8.53 2.76874 8.782C3.23541 9.034 3.77208 9.16 4.37874 9.16C4.67741 9.16 4.95741 9.118 5.21874 9.034C5.48008 8.94067 5.70408 8.81 5.89074 8.642C6.08674 8.474 6.24074 8.27333 6.35274 8.04C6.46474 7.80667 6.52074 7.54533 6.52074 7.256V7.228C6.52074 6.92 6.45074 6.64933 6.31074 6.416C6.18008 6.18267 5.99341 5.98667 5.75074 5.828C5.50808 5.66933 5.21874 5.548 4.88274 5.464C4.54674 5.38 4.17808 5.338 3.77674 5.338H3.14674L2.92274 4.68L6.01674 1.194H1.22874V0.2H7.48674V1.012L4.40674 4.428C4.83608 4.46533 5.24208 4.54467 5.62474 4.666C6.01674 4.78733 6.36208 4.96 6.66074 5.184C6.95941 5.408 7.19741 5.688 7.37474 6.024C7.55208 6.35067 7.64074 6.738 7.64074 7.186V7.214C7.64074 7.65267 7.55208 8.054 7.37474 8.418C7.20674 8.782 6.97341 9.09467 6.67474 9.356C6.38541 9.608 6.04008 9.80867 5.63874 9.958C5.24674 10.098 4.82208 10.168 4.36474 10.168ZM14.6447 6.752V1.698L10.5287 6.752H14.6447ZM14.6447 7.676H9.47868L9.19868 6.878L14.7427 0.13H15.7087V6.752H17.2347V7.676H15.7087V10H14.6447V7.676Z" fill="#2A5A75"/>
</svg>
