<svg width="16" height="11" viewBox="0 0 16 11" fill="none" xmlns="http://www.w3.org/2000/svg">
<path d="M3.7749 10.168C2.95357 10.168 2.23957 10.0093 1.6329 9.692C1.02623 9.36533 0.522232 8.94067 0.120898 8.418L0.918898 7.704C1.30157 8.17067 1.72157 8.53 2.1789 8.782C2.64557 9.034 3.18223 9.16 3.7889 9.16C4.08757 9.16 4.36756 9.118 4.6289 9.034C4.89023 8.94067 5.11423 8.81 5.3009 8.642C5.4969 8.474 5.6509 8.27333 5.7629 8.04C5.8749 7.80667 5.9309 7.54533 5.9309 7.256V7.228C5.9309 6.92 5.8609 6.64933 5.7209 6.416C5.59023 6.18267 5.40356 5.98667 5.1609 5.828C4.91823 5.66933 4.6289 5.548 4.2929 5.464C3.9569 5.38 3.58823 5.338 3.1869 5.338H2.5569L2.3329 4.68L5.4269 1.194H0.638898V0.2H6.8969V1.012L3.8169 4.428C4.24623 4.46533 4.65223 4.54467 5.0349 4.666C5.4269 4.78733 5.77223 4.96 6.0709 5.184C6.36957 5.408 6.60756 5.688 6.7849 6.024C6.96223 6.35067 7.0509 6.738 7.0509 7.186V7.214C7.0509 7.65267 6.96223 8.054 6.7849 8.418C6.6169 8.782 6.38357 9.09467 6.0849 9.356C5.79556 9.608 5.45023 9.80867 5.0489 9.958C4.6569 10.098 4.23223 10.168 3.7749 10.168ZM12.2488 10.168C11.5488 10.168 10.9002 10.0233 10.3028 9.734C9.71484 9.43533 9.19684 9.062 8.74884 8.614L9.47684 7.816C9.90617 8.236 10.3495 8.56733 10.8068 8.81C11.2735 9.04333 11.7588 9.16 12.2628 9.16C12.6082 9.16 12.9255 9.10867 13.2148 9.006C13.5135 8.894 13.7655 8.74 13.9708 8.544C14.1762 8.348 14.3348 8.11933 14.4468 7.858C14.5682 7.58733 14.6288 7.298 14.6288 6.99V6.962C14.6288 6.654 14.5682 6.374 14.4468 6.122C14.3255 5.87 14.1575 5.65533 13.9428 5.478C13.7282 5.29133 13.4715 5.15133 13.1728 5.058C12.8742 4.95533 12.5475 4.904 12.1928 4.904C11.7728 4.904 11.3948 4.96 11.0588 5.072C10.7322 5.17467 10.4242 5.30533 10.1348 5.464L9.39284 4.974L9.67284 0.2H15.3148V1.222H10.6388L10.4288 4.358C10.7182 4.22733 11.0075 4.12467 11.2968 4.05C11.5955 3.966 11.9502 3.924 12.3608 3.924C12.8368 3.924 13.2802 3.994 13.6908 4.134C14.1015 4.26467 14.4608 4.46067 14.7688 4.722C15.0768 4.98333 15.3148 5.30067 15.4828 5.674C15.6602 6.038 15.7488 6.45333 15.7488 6.92V6.948C15.7488 7.424 15.6602 7.86267 15.4828 8.264C15.3148 8.656 15.0768 8.99667 14.7688 9.286C14.4608 9.566 14.0922 9.78533 13.6628 9.944C13.2335 10.0933 12.7622 10.168 12.2488 10.168Z" fill="#2A5A75"/>
</svg>
