<svg width="17" height="11" viewBox="0 0 17 11" fill="none" xmlns="http://www.w3.org/2000/svg">
<path d="M4.5288 10.168C3.70747 10.168 2.99347 10.0093 2.3868 9.692C1.78014 9.36533 1.27614 8.94067 0.874805 8.418L1.6728 7.704C2.05547 8.17067 2.47547 8.53 2.9328 8.782C3.39947 9.034 3.93614 9.16 4.5428 9.16C4.84147 9.16 5.12147 9.118 5.3828 9.034C5.64414 8.94067 5.86814 8.81 6.0548 8.642C6.2508 8.474 6.4048 8.27333 6.5168 8.04C6.6288 7.80667 6.6848 7.54533 6.6848 7.256V7.228C6.6848 6.92 6.6148 6.64933 6.4748 6.416C6.34414 6.18267 6.15747 5.98667 5.9148 5.828C5.67214 5.66933 5.3828 5.548 5.0468 5.464C4.7108 5.38 4.34214 5.338 3.9408 5.338H3.3108L3.0868 4.68L6.1808 1.194H1.3928V0.2H7.6508V1.012L4.5708 4.428C5.00014 4.46533 5.40614 4.54467 5.7888 4.666C6.1808 4.78733 6.52614 4.96 6.8248 5.184C7.12347 5.408 7.36147 5.688 7.53881 6.024C7.71614 6.35067 7.8048 6.738 7.8048 7.186V7.214C7.8048 7.65267 7.71614 8.054 7.53881 8.418C7.3708 8.782 7.13747 9.09467 6.8388 9.356C6.54947 9.608 6.20414 9.80867 5.8028 9.958C5.4108 10.098 4.98614 10.168 4.5288 10.168ZM13.4367 9.188C13.8007 9.188 14.1274 9.132 14.4167 9.02C14.7061 8.89867 14.9534 8.74 15.1587 8.544C15.3641 8.33867 15.5227 8.10067 15.6347 7.83C15.7467 7.55 15.8027 7.256 15.8027 6.948V6.92C15.8027 6.62133 15.7421 6.346 15.6207 6.094C15.5087 5.83267 15.3454 5.60867 15.1307 5.422C14.9254 5.23533 14.6734 5.09067 14.3747 4.988C14.0854 4.876 13.7634 4.82 13.4087 4.82C13.0447 4.82 12.7087 4.88067 12.4007 5.002C12.1021 5.12333 11.8454 5.28667 11.6307 5.492C11.4161 5.688 11.2481 5.91667 11.1267 6.178C11.0147 6.43 10.9587 6.69133 10.9587 6.962V6.99C10.9587 7.298 11.0194 7.58733 11.1407 7.858C11.2621 8.12867 11.4301 8.362 11.6447 8.558C11.8687 8.754 12.1301 8.908 12.4287 9.02C12.7367 9.132 13.0727 9.188 13.4367 9.188ZM13.4227 10.168C12.8814 10.168 12.3914 10.0793 11.9527 9.902C11.5234 9.72467 11.1547 9.482 10.8467 9.174C10.6507 8.978 10.4734 8.76333 10.3147 8.53C10.1654 8.29667 10.0394 8.03067 9.93674 7.732C9.83408 7.43333 9.75474 7.09267 9.69874 6.71C9.64274 6.32733 9.61474 5.884 9.61474 5.38V5.352C9.61474 4.60533 9.70341 3.91 9.88074 3.266C10.0674 2.61267 10.3334 2.048 10.6787 1.572C11.0334 1.096 11.4627 0.722667 11.9667 0.452C12.4707 0.172 13.0447 0.0319998 13.6887 0.0319998C14.2767 0.0319998 14.7994 0.13 15.2567 0.326C15.7141 0.522 16.1574 0.797334 16.5867 1.152L15.9427 2.006C15.5787 1.698 15.2147 1.46 14.8507 1.292C14.4867 1.124 14.0807 1.04 13.6327 1.04C13.1847 1.04 12.7834 1.14733 12.4287 1.362C12.0741 1.57667 11.7707 1.87533 11.5187 2.258C11.2761 2.64067 11.0894 3.098 10.9587 3.63C10.8281 4.15267 10.7627 4.73133 10.7627 5.366C10.8934 5.17 11.0427 4.98333 11.2107 4.806C11.3881 4.61933 11.5887 4.46067 11.8127 4.33C12.0461 4.19 12.3027 4.078 12.5827 3.994C12.8721 3.91 13.1941 3.868 13.5487 3.868C14.0061 3.868 14.4401 3.938 14.8507 4.078C15.2614 4.218 15.6207 4.41867 15.9287 4.68C16.2367 4.94133 16.4794 5.25867 16.6567 5.632C16.8434 6.00533 16.9367 6.42067 16.9367 6.878V6.906C16.9367 7.382 16.8434 7.82067 16.6567 8.222C16.4794 8.614 16.2321 8.95467 15.9147 9.244C15.6067 9.53333 15.2381 9.762 14.8087 9.93C14.3794 10.0887 13.9174 10.168 13.4227 10.168Z" fill="#2A5A75"/>
</svg>
