<svg width="18" height="11" viewBox="0 0 18 11" fill="none" xmlns="http://www.w3.org/2000/svg">
<path d="M4.67236 10.168C3.78569 10.168 3.02969 10.014 2.40436 9.706C1.78836 9.38867 1.27036 8.978 0.850359 8.474L2.33436 7.06C2.67036 7.44267 3.02036 7.73667 3.38436 7.942C3.75769 8.138 4.19636 8.236 4.70036 8.236C5.11103 8.236 5.44236 8.12867 5.69436 7.914C5.95569 7.69933 6.08636 7.41 6.08636 7.046V7.018C6.08636 6.61667 5.91836 6.30867 5.58236 6.094C5.24636 5.87933 4.77503 5.772 4.16836 5.772H3.27236L2.93636 4.4L5.27436 2.048H1.42436V0.2H8.04636V1.824L5.56836 4.19C5.90436 4.246 6.22636 4.33467 6.53436 4.456C6.85169 4.57733 7.13169 4.74533 7.37436 4.96C7.62636 5.17467 7.82703 5.44533 7.97636 5.772C8.12569 6.08933 8.20036 6.47667 8.20036 6.934V6.962C8.20036 7.42867 8.11636 7.858 7.94836 8.25C7.78969 8.63267 7.55636 8.96867 7.24836 9.258C6.94969 9.54733 6.58103 9.77133 6.14236 9.93C5.70369 10.0887 5.21369 10.168 4.67236 10.168ZM14.5717 2.062H9.96567V0.2H17.0217V1.824L12.6257 10H10.1897L14.5717 2.062Z" fill="#2A5A75"/>
</svg>
