<svg width="17" height="11" viewBox="0 0 17 11" fill="none" xmlns="http://www.w3.org/2000/svg">
<path d="M4.65185 10.168C3.83052 10.168 3.11652 10.0093 2.50985 9.692C1.90318 9.36533 1.39918 8.94067 0.997852 8.418L1.79585 7.704C2.17852 8.17067 2.59852 8.53 3.05585 8.782C3.52252 9.034 4.05918 9.16 4.66585 9.16C4.96452 9.16 5.24452 9.118 5.50585 9.034C5.76718 8.94067 5.99118 8.81 6.17785 8.642C6.37385 8.474 6.52785 8.27333 6.63985 8.04C6.75185 7.80667 6.80785 7.54533 6.80785 7.256V7.228C6.80785 6.92 6.73785 6.64933 6.59785 6.416C6.46719 6.18267 6.28052 5.98667 6.03785 5.828C5.79518 5.66933 5.50585 5.548 5.16985 5.464C4.83385 5.38 4.46518 5.338 4.06385 5.338H3.43385L3.20985 4.68L6.30385 1.194H1.51585V0.2H7.77385V1.012L4.69385 4.428C5.12318 4.46533 5.52918 4.54467 5.91185 4.666C6.30385 4.78733 6.64918 4.96 6.94785 5.184C7.24652 5.408 7.48452 5.688 7.66185 6.024C7.83918 6.35067 7.92785 6.738 7.92785 7.186V7.214C7.92785 7.65267 7.83918 8.054 7.66185 8.418C7.49385 8.782 7.26052 9.09467 6.96185 9.356C6.67252 9.608 6.32718 9.80867 5.92585 9.958C5.53385 10.098 5.10918 10.168 4.65185 10.168ZM13.2938 9.174C13.6951 9.174 14.0545 9.12733 14.3718 9.034C14.6891 8.93133 14.9551 8.796 15.1698 8.628C15.3938 8.46 15.5618 8.26867 15.6738 8.054C15.7951 7.83 15.8558 7.592 15.8558 7.34V7.312C15.8558 7.04133 15.7858 6.794 15.6458 6.57C15.5151 6.33667 15.3331 6.14067 15.0998 5.982C14.8758 5.814 14.6051 5.68333 14.2878 5.59C13.9798 5.49667 13.6485 5.45 13.2938 5.45C12.9391 5.45 12.6031 5.49667 12.2858 5.59C11.9778 5.68333 11.7071 5.814 11.4738 5.982C11.2405 6.14067 11.0585 6.33667 10.9278 6.57C10.7971 6.794 10.7318 7.04133 10.7318 7.312V7.34C10.7318 7.592 10.7878 7.83 10.8998 8.054C11.0211 8.26867 11.1891 8.46 11.4038 8.628C11.6278 8.796 11.8985 8.93133 12.2158 9.034C12.5331 9.12733 12.8925 9.174 13.2938 9.174ZM13.2938 4.54C13.6018 4.54 13.8911 4.498 14.1618 4.414C14.4418 4.32067 14.6798 4.19933 14.8758 4.05C15.0811 3.89133 15.2398 3.70467 15.3518 3.49C15.4731 3.266 15.5338 3.01867 15.5338 2.748V2.72C15.5338 2.47733 15.4778 2.25333 15.3658 2.048C15.2538 1.84267 15.0951 1.66533 14.8898 1.516C14.6938 1.35733 14.4558 1.236 14.1758 1.152C13.9051 1.068 13.6111 1.026 13.2938 1.026C12.9765 1.026 12.6778 1.068 12.3978 1.152C12.1271 1.236 11.8891 1.35267 11.6838 1.502C11.4878 1.65133 11.3338 1.83333 11.2218 2.048C11.1098 2.25333 11.0538 2.47733 11.0538 2.72V2.748C11.0538 3.01867 11.1098 3.266 11.2218 3.49C11.3431 3.70467 11.5018 3.89133 11.6978 4.05C11.9031 4.19933 12.1411 4.32067 12.4118 4.414C12.6918 4.498 12.9858 4.54 13.2938 4.54ZM13.2938 10.14C12.7711 10.14 12.2858 10.0747 11.8378 9.944C11.3898 9.804 10.9978 9.61267 10.6618 9.37C10.3351 9.12733 10.0785 8.838 9.89179 8.502C9.70512 8.15667 9.61179 7.77867 9.61179 7.368V7.34C9.61179 6.752 9.79846 6.25733 10.1718 5.856C10.5545 5.45467 11.0398 5.14667 11.6278 4.932C11.4038 4.82933 11.1891 4.708 10.9838 4.568C10.7785 4.41867 10.5965 4.25533 10.4378 4.078C10.2885 3.89133 10.1671 3.68133 10.0738 3.448C9.98979 3.21467 9.94779 2.958 9.94779 2.678V2.65C9.94779 2.27667 10.0365 1.93133 10.2138 1.614C10.4005 1.29667 10.6431 1.02133 10.9418 0.788C11.2498 0.554667 11.6045 0.377333 12.0058 0.256C12.4165 0.125333 12.8458 0.0600003 13.2938 0.0600003C13.7418 0.0600003 14.1665 0.125333 14.5678 0.256C14.9785 0.377333 15.3331 0.554667 15.6318 0.788C15.9398 1.02133 16.1825 1.29667 16.3598 1.614C16.5465 1.93133 16.6398 2.27667 16.6398 2.65V2.678C16.6398 2.958 16.5931 3.21467 16.4998 3.448C16.4158 3.68133 16.2945 3.89133 16.1358 4.078C15.9865 4.25533 15.8091 4.41867 15.6038 4.568C15.3985 4.708 15.1838 4.82933 14.9598 4.932C15.5385 5.14667 16.0191 5.45467 16.4018 5.856C16.7845 6.25733 16.9758 6.74733 16.9758 7.326V7.354C16.9758 7.774 16.8825 8.15667 16.6958 8.502C16.5091 8.838 16.2478 9.12733 15.9118 9.37C15.5851 9.61267 15.1978 9.804 14.7498 9.944C14.3018 10.0747 13.8165 10.14 13.2938 10.14Z" fill="#2A5A75"/>
</svg>
