<svg width="17" height="11" viewBox="0 0 17 11" fill="none" xmlns="http://www.w3.org/2000/svg">
<path d="M4.5288 10.168C3.70747 10.168 2.99347 10.0093 2.3868 9.692C1.78014 9.36533 1.27614 8.94067 0.874805 8.418L1.6728 7.704C2.05547 8.17067 2.47547 8.53 2.9328 8.782C3.39947 9.034 3.93614 9.16 4.5428 9.16C4.84147 9.16 5.12147 9.118 5.3828 9.034C5.64414 8.94067 5.86814 8.81 6.0548 8.642C6.2508 8.474 6.4048 8.27333 6.5168 8.04C6.6288 7.80667 6.6848 7.54533 6.6848 7.256V7.228C6.6848 6.92 6.6148 6.64933 6.4748 6.416C6.34414 6.18267 6.15747 5.98667 5.9148 5.828C5.67214 5.66933 5.3828 5.548 5.0468 5.464C4.7108 5.38 4.34214 5.338 3.9408 5.338H3.3108L3.0868 4.68L6.1808 1.194H1.3928V0.2H7.6508V1.012L4.5708 4.428C5.00014 4.46533 5.40614 4.54467 5.7888 4.666C6.1808 4.78733 6.52614 4.96 6.8248 5.184C7.12347 5.408 7.36147 5.688 7.53881 6.024C7.71614 6.35067 7.8048 6.738 7.8048 7.186V7.214C7.8048 7.65267 7.71614 8.054 7.53881 8.418C7.3708 8.782 7.13747 9.09467 6.8388 9.356C6.54947 9.608 6.20414 9.80867 5.8028 9.958C5.4108 10.098 4.98614 10.168 4.5288 10.168ZM13.1847 5.478C13.5581 5.478 13.8941 5.41733 14.1927 5.296C14.5007 5.16533 14.7574 4.99733 14.9627 4.792C15.1774 4.58667 15.3407 4.35333 15.4527 4.092C15.5647 3.82133 15.6207 3.546 15.6207 3.266V3.238C15.6207 2.93 15.5601 2.64067 15.4387 2.37C15.3174 2.09933 15.1447 1.866 14.9207 1.67C14.7061 1.46467 14.4447 1.306 14.1367 1.194C13.8287 1.07267 13.4927 1.012 13.1287 1.012C12.7647 1.012 12.4334 1.07733 12.1347 1.208C11.8454 1.32933 11.5981 1.49733 11.3927 1.712C11.1967 1.91733 11.0427 2.16 10.9307 2.44C10.8281 2.71067 10.7767 3 10.7767 3.308V3.336C10.7767 3.644 10.8327 3.93333 10.9447 4.204C11.0661 4.46533 11.2294 4.68933 11.4347 4.876C11.6494 5.06267 11.9061 5.212 12.2047 5.324C12.5034 5.42667 12.8301 5.478 13.1847 5.478ZM12.8907 10.168C12.2467 10.168 11.6867 10.056 11.2107 9.832C10.7347 9.59867 10.2867 9.30933 9.86674 8.964L10.5107 8.11C10.9121 8.46467 11.3041 8.73067 11.6867 8.908C12.0694 9.076 12.4801 9.16 12.9187 9.16C13.3574 9.16 13.7587 9.05267 14.1227 8.838C14.4867 8.62333 14.7947 8.32933 15.0467 7.956C15.3081 7.57333 15.5041 7.12067 15.6347 6.598C15.7747 6.066 15.8401 5.48733 15.8307 4.862C15.5601 5.29133 15.2007 5.66 14.7527 5.968C14.3047 6.276 13.7401 6.43 13.0587 6.43C12.5547 6.43 12.0927 6.35533 11.6727 6.206C11.2527 6.05667 10.8934 5.84667 10.5947 5.576C10.2961 5.30533 10.0627 4.98333 9.89474 4.61C9.72674 4.23667 9.64274 3.83067 9.64274 3.392V3.364C9.64274 2.89733 9.72674 2.46333 9.89474 2.062C10.0721 1.65133 10.3147 1.29667 10.6227 0.998C10.9307 0.699333 11.2994 0.466 11.7287 0.298C12.1674 0.120667 12.6481 0.0319998 13.1707 0.0319998C13.7307 0.0319998 14.2207 0.120667 14.6407 0.298C15.0607 0.475334 15.4294 0.722667 15.7467 1.04C16.1201 1.41333 16.4141 1.894 16.6287 2.482C16.8527 3.07 16.9647 3.854 16.9647 4.834V4.862C16.9647 5.63667 16.8667 6.35067 16.6707 7.004C16.4747 7.65733 16.1947 8.21733 15.8307 8.684C15.4761 9.15067 15.0467 9.51467 14.5427 9.776C14.0481 10.0373 13.4974 10.168 12.8907 10.168Z" fill="#2A5A75"/>
</svg>
