<svg width="19" height="11" viewBox="0 0 19 11" fill="none" xmlns="http://www.w3.org/2000/svg">
<path d="M6.3478 6.752V1.698L2.2318 6.752H6.3478ZM6.3478 7.676H1.1818L0.901805 6.878L6.4458 0.13H7.4118V6.752H8.9378V7.676H7.4118V10H6.3478V7.676ZM14.7184 9.16C15.1757 9.16 15.5864 9.05267 15.9504 8.838C16.3237 8.614 16.6364 8.32 16.8884 7.956C17.1497 7.58267 17.3457 7.15333 17.4764 6.668C17.6164 6.17333 17.6864 5.66 17.6864 5.128V5.1C17.6864 4.568 17.6164 4.05933 17.4764 3.574C17.3364 3.07933 17.1357 2.64533 16.8744 2.272C16.613 1.89867 16.2957 1.6 15.9224 1.376C15.5584 1.152 15.1477 1.04 14.6904 1.04C14.233 1.04 13.8177 1.152 13.4444 1.376C13.0804 1.59067 12.7677 1.88467 12.5064 2.258C12.2544 2.622 12.0584 3.04667 11.9184 3.532C11.7784 4.01733 11.7084 4.53067 11.7084 5.072V5.1C11.7084 5.632 11.7784 6.14533 11.9184 6.64C12.0584 7.12533 12.259 7.55467 12.5204 7.928C12.7817 8.30133 13.099 8.6 13.4724 8.824C13.8457 9.048 14.261 9.16 14.7184 9.16ZM14.6904 10.168C14.0557 10.168 13.4817 10.0373 12.9684 9.776C12.4644 9.50533 12.0304 9.14133 11.6664 8.684C11.3117 8.21733 11.0364 7.68067 10.8404 7.074C10.6537 6.46733 10.5604 5.81867 10.5604 5.128V5.1C10.5604 4.41867 10.6584 3.77 10.8544 3.154C11.0504 2.538 11.3304 2.00133 11.6944 1.544C12.0584 1.07733 12.4924 0.708667 12.9964 0.438C13.5097 0.167333 14.0837 0.0319998 14.7184 0.0319998C15.3437 0.0319998 15.9084 0.167333 16.4124 0.438C16.9257 0.699333 17.3597 1.06333 17.7144 1.53C18.0784 1.98733 18.3537 2.524 18.5404 3.14C18.7364 3.74667 18.8344 4.39067 18.8344 5.072V5.1C18.8344 5.79067 18.7364 6.444 18.5404 7.06C18.3444 7.66667 18.0644 8.20333 17.7004 8.67C17.3457 9.12733 16.9117 9.49133 16.3984 9.762C15.885 10.0327 15.3157 10.168 14.6904 10.168Z" fill="#2A5A75"/>
</svg>
