<svg width="18" height="10" viewBox="0 0 18 10" fill="none" xmlns="http://www.w3.org/2000/svg">
<path d="M6.16128 6.752V1.698L2.04528 6.752H6.16128ZM6.16128 7.676H0.995281L0.715281 6.878L6.25928 0.13H7.22528V6.752H8.75128V7.676H7.22528V10H6.16128V7.676ZM10.1779 9.146L13.7339 6.01C14.1072 5.674 14.4245 5.37067 14.6859 5.1C14.9472 4.82933 15.1572 4.57733 15.3159 4.344C15.4745 4.10133 15.5912 3.868 15.6659 3.644C15.7405 3.41067 15.7779 3.17267 15.7779 2.93C15.7779 2.64067 15.7219 2.384 15.6099 2.16C15.5072 1.92667 15.3672 1.73067 15.1899 1.572C15.0125 1.404 14.8025 1.278 14.5599 1.194C14.3172 1.10067 14.0652 1.054 13.8039 1.054C13.2439 1.054 12.7632 1.19867 12.3619 1.488C11.9605 1.768 11.5639 2.18333 11.1719 2.734L10.3599 2.146C10.5839 1.81933 10.8125 1.52533 11.0459 1.264C11.2792 1.00267 11.5312 0.783333 11.8019 0.606C12.0819 0.428667 12.3899 0.293333 12.7259 0.2C13.0712 0.106667 13.4585 0.0600003 13.8879 0.0600003C14.3265 0.0600003 14.7325 0.13 15.1059 0.27C15.4792 0.41 15.8012 0.606 16.0719 0.858C16.3425 1.10067 16.5525 1.39 16.7019 1.726C16.8512 2.062 16.9259 2.43067 16.9259 2.832V2.86C16.9259 3.21467 16.8745 3.546 16.7719 3.854C16.6785 4.15267 16.5292 4.45133 16.3239 4.75C16.1279 5.03933 15.8712 5.338 15.5539 5.646C15.2459 5.954 14.8772 6.29467 14.4479 6.668L11.8299 8.992H17.0239V10H10.1779V9.146Z" fill="#2A5A75"/>
</svg>
